<?xml version="1.0" standalone="no"?>
<!DOCTYPE svg PUBLIC "-//W3C//DTD SVG 1.1//EN" "http://www.w3.org/Graphics/SVG/1.1/DTD/svg11.dtd" >
<svg xmlns="http://www.w3.org/2000/svg">
<metadata>Generated by IcoMoon</metadata>
<defs>
<font id="skilla-icons" horiz-adv-x="1024">
<font-face units-per-em="1024" ascent="960" descent="-64" />
<missing-glyph horiz-adv-x="1024" />
<glyph unicode="&#x20;" horiz-adv-x="512" d="" />
<glyph unicode="&#xe900;" glyph-name="play" d="M192 960v-1024l640 511.264-640 512.736z" />
<glyph unicode="&#xe901;" glyph-name="pause" d="M352 960h-192c-17.696 0-32-14.336-32-32v-960c0-17.696 14.304-32 32-32h192c17.696 0 32 14.304 32 32v960c0 17.664-14.304 32-32 32zM864 960h-192c-17.696 0-32-14.336-32-32v-960c0-17.696 14.304-32 32-32h192c17.696 0 32 14.304 32 32v960c0 17.664-14.304 32-32 32z" />
<glyph unicode="&#xe902;" glyph-name="info-small" d="M512.020 857.6c-226.249 0-409.62-183.372-409.62-409.578 0-226.249 183.372-409.622 409.62-409.622 226.166 0 409.58 183.373 409.58 409.622 0 226.207-183.414 409.578-409.58 409.578zM550.246 709.725c39.936 0 51.671-23.167 51.671-49.661 0-33.065-26.455-63.655-71.634-63.655-37.802 0-55.807 18.985-54.697 50.429 0 26.494 22.142 62.887 74.66 62.887zM447.94 202.701c-27.305 0-47.23 16.594-28.159 89.339l31.273 129.060c5.418 20.649 6.314 28.927 0 28.927-8.149 0-43.603-14.248-64.509-28.328l-13.61 22.313c66.343 55.42 142.628 87.931 175.263 87.931 27.31 0 31.831-32.254 18.222-81.916l-35.84-135.674c-6.359-23.977-3.625-32.251 2.729-32.251 8.192 0 34.985 9.897 61.353 30.674l15.447-20.736c-64.553-64.507-134.907-89.339-162.17-89.339z" />
<glyph unicode="&#xe903;" glyph-name="Phone" d="M205.938 516.836c81.92-160.996 213.902-292.407 374.898-374.897l125.155 125.152c15.36 15.36 38.118 20.48 58.029 13.658 63.712-21.050 132.55-32.429 203.091-32.429 31.29 0 56.89-25.6 56.89-56.89v-198.541c0-31.29-25.6-56.89-56.89-56.89-534.186 0-967.11 432.924-967.11 967.111 0 31.289 25.6 56.889 56.889 56.889h199.111c31.289 0 56.889-25.6 56.889-56.889 0-71.111 11.378-139.378 32.427-203.093 6.257-19.911 1.706-42.098-14.223-58.027l-125.155-125.155z" />
<glyph unicode="&#xe904;" glyph-name="chevron-up" d="M120.875 340.563c-9.625-9.188-14.875-21.439-14.875-35.436 0-28.442 22.312-50.752 50.75-50.752 14 0 27.125 5.248 36.75 15.315l300.125 307.56 300.122-307.56c9.626-10.067 22.752-15.315 36.755-15.315 28 0 50.31 22.31 50.31 50.752 0 13.997-4.813 26.248-14.438 35.436l-333.375 341.25c-10.937 11.375-24.5 17.5-39.375 17.5s-28-5.688-39.375-17.5l-333.375-341.25z" />
<glyph unicode="&#xe905;" glyph-name="chevron-down" d="M120.875 613.125c-9.625 9.187-14.875 21.437-14.875 35.437 0 28.437 22.312 50.75 50.75 50.75 14 0 27.125-5.25 36.75-15.313l300.125-307.562 300.122 307.562c9.626 10.063 22.752 15.313 36.755 15.313 28 0 50.31-22.313 50.31-50.75 0-14-4.813-26.25-14.438-35.437l-333.375-341.253c-10.937-11.373-24.5-17.498-39.375-17.498s-28 5.69-39.375 17.498l-333.375 341.253z" />
<glyph unicode="&#xe906;" glyph-name="mark-2" horiz-adv-x="3584" d="M1024 448c0-282.77-229.23-512-512-512s-512 229.23-512 512c0 282.77 229.23 512 512 512s512-229.23 512-512zM2304 448c0-282.77-229.23-512-512-512s-512 229.23-512 512c0 282.77 229.23 512 512 512s512-229.23 512-512z" />
<glyph unicode="&#xe907;" glyph-name="mark-1" horiz-adv-x="3584" d="M1024 448c0-282.77-229.23-512-512-512s-512 229.23-512 512c0 282.77 229.23 512 512 512s512-229.23 512-512z" />
<glyph unicode="&#xe908;" glyph-name="chevron-right" d="M762.667 431.416c0-9.167-1.667-17.638-5-25.417-3.334-7.5-8.75-14.861-16.25-22.083l-300-294.163c-11.111-11.119-24.861-16.674-41.25-16.674-10.833 0-20.694 2.645-29.583 7.919-9.167 5.282-16.388 12.365-21.666 21.248-5.278 8.893-7.917 18.754-7.917 29.587 0 16.389 6.251 30.833 18.75 43.333l263.75 256.25-263.75 256.667c-12.5 12.222-18.75 26.388-18.75 42.499 0 11.111 2.639 21.111 7.917 30.001s12.5 15.833 21.666 20.833c8.889 5.278 18.75 7.916 29.583 7.916 16.389 0 30.139-5.555 41.25-16.666l300-293.751c7.5-7.222 12.916-14.722 16.25-22.5 3.333-7.5 5-15.833 5-25z" />
<glyph unicode="&#xe909;" glyph-name="chevron-left" d="M256 431.416c0-9.167 1.667-17.638 5-25.417 3.334-7.5 8.75-14.861 16.25-22.083l300-294.163c11.111-11.119 24.861-16.674 41.25-16.674 10.833 0 20.694 2.645 29.583 7.919 9.167 5.282 16.388 12.365 21.666 21.248 5.278 8.893 7.917 18.754 7.917 29.587 0 16.389-6.251 30.833-18.75 43.333l-263.75 256.25 263.75 256.667c12.5 12.222 18.75 26.388 18.75 42.499 0 11.111-2.639 21.111-7.917 30.001s-12.5 15.833-21.666 20.833c-8.889 5.278-18.75 7.916-29.583 7.916-16.389 0-30.139-5.555-41.25-16.666l-300-293.751c-7.5-7.222-12.916-14.722-16.25-22.5-3.333-7.5-5-15.833-5-25z" />
<glyph unicode="&#xe90a;" glyph-name="download" d="M256 106.667h554.667v80.316h-554.667v-80.316zM810.667 548.392h-158.477v240.941h-237.713v-240.941h-158.476l277.333-281.098 277.333 281.098z" />
<glyph unicode="&#xe90b;" glyph-name="alert" d="M512 874.667c-235.52 0-426.667-191.147-426.667-426.667s191.147-426.667 426.667-426.667c235.52 0 426.667 191.147 426.667 426.667s-191.147 426.667-426.667 426.667zM554.667 234.667h-85.333v85.333h85.333v-85.333zM554.667 405.333h-85.333v256h85.333v-256z" />
<glyph unicode="&#xe90c;" glyph-name="mark-3" horiz-adv-x="3584" d="M1024 448c0-282.77-229.23-512-512-512s-512 229.23-512 512c0 282.77 229.23 512 512 512s512-229.23 512-512zM2304 448c0-282.77-229.23-512-512-512s-512 229.23-512 512c0 282.77 229.23 512 512 512s512-229.23 512-512zM3584 448c0-282.77-229.23-512-512-512s-512 229.23-512 512c0 282.77 229.23 512 512 512s512-229.23 512-512z" />
<glyph unicode="&#xe90d;" glyph-name="call-up" d="M256 219.959l50.22-50.219 412.807 412.804v-234.718h71.232v356.173h-356.173v-71.235h234.718l-412.805-412.806z" />
<glyph unicode="&#xe90e;" glyph-name="web" d="M698.025 362.675c3.415 28.16 5.975 56.32 5.975 85.333s-2.56 57.174-5.975 85.334h144.215c6.825-27.306 11.090-55.894 11.090-85.334 0-29.438-4.265-58.028-11.090-85.333h-144.215zM622.505 125.45c25.6 47.36 45.225 98.56 58.88 151.89h125.865c-40.96-70.4-106.24-125.010-184.745-151.89zM611.84 362.675h-199.682c-4.266 28.16-6.826 56.32-6.826 85.333s2.56 57.6 6.826 85.334h199.682c3.84-27.734 6.825-56.32 6.825-85.334s-2.985-57.173-6.825-85.333zM511.998 108.38c-35.414 51.2-64 107.95-81.494 168.96h162.985c-17.49-61.010-46.080-117.76-81.492-168.96zM341.331 618.675h-124.587c40.534 70.826 106.24 125.44 184.32 151.893-25.6-47.36-44.8-98.56-59.733-151.893zM216.744 277.34h124.587c14.933-53.33 34.133-104.53 59.733-151.89-78.080 26.88-143.786 81.49-184.32 151.89zM181.758 362.675c-6.826 27.305-11.094 55.895-11.094 85.333 0 29.44 4.267 58.027 11.094 85.334h144.214c-3.414-28.16-5.974-56.32-5.974-85.334s2.56-57.173 5.974-85.333h-144.214zM511.998 788.062c35.412-51.2 64.002-108.374 81.492-169.386h-162.985c17.494 61.013 46.080 118.186 81.494 169.386zM807.25 618.675h-125.865c-13.655 53.333-33.28 104.533-58.88 151.893 78.505-26.88 143.785-81.066 184.745-151.893zM511.998 874.675c-235.946 0-426.666-192-426.666-426.667 0-113.16 44.952-221.684 124.967-301.699 39.62-39.619 86.655-71.045 138.421-92.488s107.248-32.481 163.278-32.481c113.159 0 221.683 44.954 301.698 124.969s124.969 188.539 124.969 301.699c0 56.031-11.039 111.513-32.476 163.278-21.443 51.766-52.874 98.801-92.493 138.421s-86.656 71.048-138.419 92.49c-51.768 21.442-107.249 32.478-163.279 32.478z" />
<glyph unicode="&#xe90f;" glyph-name="call-down" d="M790.259 653.78l-50.219 50.22-412.806-412.804v234.718h-71.235v-356.173h356.173v71.232h-234.717l412.804 412.807z" />
<glyph unicode="&#xe910;" glyph-name="icon-calendar" horiz-adv-x="910" d="M819.2 866.909h-45.511v93.091h-91.022v-93.091h-455.111v93.091h-91.022v-93.091h-45.511c-50.062 0-91.022-41.891-91.022-93.091v-744.725c0-51.2 40.96-93.093 91.022-93.093h728.178c50.062 0 91.022 41.893 91.022 93.093v744.725c0 51.2-40.96 93.091-91.022 93.091zM819.2 29.093h-728.178v605.089h728.178v-605.089z" />
<glyph unicode="&#xe911;" glyph-name="plus" d="M512 960c-282.624 0-512-229.376-512-512s229.376-512 512-512c282.624 0 512 229.376 512 512s-229.376 512-512 512zM768 396.8h-204.8v-204.8h-102.4v204.8h-204.8v102.4h204.8v204.8h102.4v-204.8h204.8v-102.4z" />
<glyph unicode="&#xe912;" glyph-name="settings" d="M828.966 406.187c1.707 13.653 2.987 27.307 2.987 41.813s-1.28 28.16-2.987 41.813l90.027 70.4c8.107 6.4 10.24 17.92 5.12 27.307l-85.333 147.627c-3.84 6.827-11.093 10.667-18.773 10.667-2.56 0-5.12-0.427-7.253-1.28l-106.24-42.667c-22.187 17.067-46.080 31.147-72.107 41.813l-16.213 113.067c-1.28 10.24-10.24 17.92-20.907 17.92h-170.668c-10.667 0-19.627-7.68-20.907-17.92l-16.213-113.067c-26.027-10.667-49.92-25.173-72.107-41.813l-106.24 42.667c-2.56 0.853-5.12 1.28-7.68 1.28-7.253 0-14.507-3.84-18.347-10.667l-85.333-147.627c-5.547-9.387-2.987-20.907 5.12-27.307l90.027-70.4c-1.707-13.653-2.987-27.733-2.987-41.813s1.28-28.16 2.987-41.813l-90.027-70.4c-8.107-6.4-10.24-17.92-5.12-27.307l85.333-147.627c3.84-6.827 11.093-10.667 18.773-10.667 2.56 0 5.12 0.427 7.253 1.28l106.24 42.667c22.187-17.067 46.080-31.147 72.107-41.813l16.213-113.067c1.28-10.24 10.24-17.92 20.907-17.92h170.668c10.667 0 19.627 7.68 20.907 17.92l16.213 113.067c26.027 10.667 49.92 25.173 72.107 41.813l106.24-42.667c2.56-0.853 5.12-1.28 7.68-1.28 7.253 0 14.507 3.84 18.347 10.667l85.333 147.627c5.12 9.387 2.987 20.907-5.12 27.307l-90.027 70.4zM744.486 479.147c1.707-13.227 2.133-22.187 2.133-31.147s-0.853-18.347-2.133-31.147l-5.973-48.213 37.973-29.867 46.080-35.84-29.867-51.627-54.187 21.76-44.373 17.92-38.4-29.013c-18.347-13.653-35.84-23.893-53.333-31.147l-45.227-18.347-6.827-48.213-8.533-57.6h-59.733l-8.107 57.6-6.827 48.213-45.228 18.347c-18.347 7.68-35.413 17.493-52.48 30.293l-38.827 29.867-45.227-18.347-54.187-21.76-29.867 51.627 46.080 35.84 37.973 29.867-5.973 48.213c-1.28 13.227-2.133 23.040-2.133 31.573s0.853 18.347 2.133 31.147l5.973 48.213-37.973 29.867-46.080 35.84 29.867 51.627 54.187-21.76 44.373-17.92 38.4 29.013c18.347 13.653 35.84 23.893 53.333 31.147l45.228 18.347 6.827 48.213 8.533 57.6h59.307l8.107-57.6 6.827-48.213 45.227-18.347c18.347-7.68 35.413-17.493 52.48-30.293l38.827-29.867 45.227 18.347 54.187 21.76 29.867-51.627-45.653-36.267-37.973-29.867 5.973-48.213zM511.953 618.667c-94.295 0-170.668-76.373-170.668-170.667s76.373-170.667 170.668-170.667c94.293 0 170.667 76.373 170.667 170.667s-76.373 170.667-170.667 170.667zM511.953 362.667c-46.933 0-85.335 38.4-85.335 85.333s38.402 85.333 85.335 85.333c46.933 0 85.333-38.4 85.333-85.333s-38.4-85.333-85.333-85.333z" />
<glyph unicode="&#xe913;" glyph-name="local-library" d="M512 576c94.293 0 170.667 76.373 170.667 170.667s-76.373 170.667-170.667 170.667c-94.293 0-170.667-76.373-170.667-170.667s76.373-170.667 170.667-170.667zM512 832c46.933 0 85.333-38.4 85.333-85.333s-38.4-85.333-85.333-85.333c-46.933 0-85.333 38.4-85.333 85.333s38.4 85.333 85.333 85.333zM512 467.2c-100.693 93.867-235.52 151.467-384 151.467v-469.333c148.48 0 283.307-57.6 384-151.467 100.693 93.44 235.52 151.467 384 151.467v469.333c-148.48 0-283.307-57.6-384-151.467zM810.667 229.12c-107.947-14.507-210.347-55.467-298.667-120.32-87.893 64.853-190.72 106.24-298.667 120.747v296.533c89.6-16.213 172.8-57.6 240.64-120.747l58.027-54.613 58.027 54.187c67.84 63.147 151.040 104.533 240.64 120.747v-296.533z" />
<glyph unicode="&#xe914;" glyph-name="briefcase-outline" d="M853.333 704c24.747 0 44.8-8.533 60.587-25.173 16.213-17.493 24.747-36.693 24.747-60.16v-469.333c0-23.467-8.533-42.667-24.747-60.16-15.787-16.64-35.84-25.173-60.587-25.173h-682.667c-24.747 0-44.8 8.533-60.587 25.173-16.213 17.493-24.747 36.693-24.747 60.16v469.333c0 23.467 8.533 42.667 24.747 60.16 15.787 16.64 35.84 25.173 60.587 25.173h170.667v85.333c0 24.747 8.533 44.8 24.747 60.587 15.787 16.213 35.84 24.747 60.587 24.747h170.667c24.747 0 44.8-8.533 60.587-24.747 16.213-15.787 24.747-35.84 24.747-60.587v-85.333h170.667zM170.667 618.667v-469.333h682.667v469.333h-682.667zM597.333 704v85.333h-170.667v-85.333h170.667z" />
<glyph unicode="&#xe915;" glyph-name="user" d="M512 704c46.933 0 85.333-38.4 85.333-85.333s-38.4-85.333-85.333-85.333c-46.933 0-85.333 38.4-85.333 85.333s38.4 85.333 85.333 85.333zM512 320c115.2 0 247.467-55.040 256-85.333v-42.667h-512v42.24c8.533 30.72 140.8 85.76 256 85.76zM512 789.333c-94.293 0-170.667-76.373-170.667-170.667s76.373-170.667 170.667-170.667c94.293 0 170.667 76.373 170.667 170.667s-76.373 170.667-170.667 170.667zM512 405.333c-113.92 0-341.333-57.173-341.333-170.667v-128h682.667v128c0 113.493-227.413 170.667-341.333 170.667z" />
<glyph unicode="&#xe916;" glyph-name="documents" d="M341.333 277.333h341.333v-85.333h-341.333v85.333zM341.333 448h341.333v-85.333h-341.333v85.333zM597.333 874.667h-341.333c-46.933 0-85.333-38.4-85.333-85.333v-682.667c0-46.933 37.973-85.333 84.907-85.333h512.427c46.933 0 85.333 38.4 85.333 85.333v512l-256 256zM768 106.667h-512v682.667h298.667v-213.333h213.333v-469.333z" />
<glyph unicode="&#xe917;" glyph-name="people" d="M384 373.333c-99.84 0-298.667-49.92-298.667-149.333v-74.667h597.333v74.667c0 99.413-198.827 149.333-298.667 149.333zM185.173 234.667c35.84 24.747 122.453 53.333 198.827 53.333s162.987-28.587 198.827-53.333h-397.653zM384 448c82.347 0 149.333 66.987 149.333 149.333s-66.987 149.333-149.333 149.333c-82.347 0-149.333-66.987-149.333-149.333s66.987-149.333 149.333-149.333zM384 661.333c35.413 0 64-28.587 64-64s-28.587-64-64-64c-35.413 0-64 28.587-64 64s28.587 64 64 64zM684.373 370.773c49.493-35.84 83.627-83.627 83.627-146.773v-74.667h170.667v74.667c0 86.187-149.333 135.253-254.293 146.773zM640 448c82.347 0 149.333 66.987 149.333 149.333s-66.987 149.333-149.333 149.333c-23.040 0-44.373-5.547-64-14.933 26.88-37.973 42.667-84.48 42.667-134.4s-15.787-96.427-42.667-134.4c19.627-9.387 40.96-14.933 64-14.933z" />
<glyph unicode="&#xe918;" glyph-name="calls" d="M279.040 746.667c2.56-37.973 8.96-75.093 19.2-110.507l-51.2-51.2c-17.493 51.2-28.587 105.387-32.427 161.707h64.427zM699.733 233.813c36.267-10.24 73.387-16.64 110.933-19.2v-63.573c-56.32 3.84-110.507 14.933-162.133 32l51.2 50.773zM320 832h-149.333c-23.467 0-42.667-19.2-42.667-42.667 0-400.64 324.693-725.333 725.333-725.333 23.467 0 42.667 19.2 42.667 42.667v148.907c0 23.467-19.2 42.667-42.667 42.667-52.907 0-104.533 8.533-152.32 24.32-4.267 1.707-8.96 2.133-13.227 2.133-11.093 0-21.76-4.267-30.293-12.373l-93.867-93.867c-120.747 61.867-219.733 160.427-281.173 281.173l93.867 93.867c11.947 11.947 15.36 28.587 10.667 43.52-15.787 47.787-24.32 98.987-24.32 152.32 0 23.467-19.2 42.667-42.667 42.667z" />
<glyph unicode="&#xe919;" glyph-name="mail-outline" d="M853.333 789.333h-682.667c-46.933 0-84.907-38.4-84.907-85.333l-0.427-512c0-46.933 38.4-85.333 85.333-85.333h682.667c46.933 0 85.333 38.4 85.333 85.333v512c0 46.933-38.4 85.333-85.333 85.333zM853.333 192h-682.667v426.667l341.333-213.333 341.333 213.333v-426.667zM512 490.667l-341.333 213.333h682.667l-341.333-213.333z" />
<glyph unicode="&#xe91a;" glyph-name="orders" d="M768 661.329l-60.16 60.16-270.507-270.507 60.16-60.16 270.507 270.507zM948.907 721.489l-451.413-451.414-178.345 177.92-60.16-60.16 238.505-238.507 512 512-60.587 60.16zM17.495 387.836l238.506-238.507 60.16 60.16-238.080 238.507-60.586-60.16z" />
<glyph unicode="&#xe91b;" glyph-name="chart-timeline-variant" d="M128 362.667l21.333-2.987 194.987 194.987c-7.68 27.733-0.427 59.307 22.187 81.493 33.28 33.707 87.040 33.707 120.32 0 22.613-22.187 29.867-53.76 22.187-81.493l109.653-109.653 21.333 2.987c7.68 0 14.933 0 21.333-2.987l152.32 152.32c-2.987 6.4-2.987 13.653-2.987 21.333 0 22.632 8.99 44.337 24.994 60.34s37.709 24.994 60.339 24.994c22.63 0 44.335-8.99 60.339-24.994s24.994-37.708 24.994-60.34c0-22.632-8.99-44.337-24.994-60.34s-37.709-24.994-60.339-24.994c-7.68 0-14.933 0-21.333 2.987l-152.32-152.32c2.987-6.4 2.987-13.653 2.987-21.333 0-22.63-8.99-44.335-24.994-60.339s-37.709-24.994-60.339-24.994c-22.63 0-44.335 8.99-60.339 24.994s-24.994 37.709-24.994 60.339l2.987 21.333-109.653 109.653c-13.653-2.987-29.013-2.987-42.667 0l-194.987-194.987 2.987-21.333c0-22.63-8.99-44.335-24.994-60.339s-37.708-24.994-60.34-24.994c-22.632 0-44.337 8.99-60.34 24.994s-24.994 37.709-24.994 60.339c0 22.63 8.99 44.335 24.994 60.339s37.708 24.994 60.34 24.994z" />
<glyph unicode="&#xe91c;" glyph-name="search" d="M731.846 315.974h-46.253l-16.39 15.809c57.376 66.744 91.917 153.395 91.917 247.657 0 210.186-170.373 380.56-380.56 380.56s-380.56-170.374-380.56-380.56c0-210.187 170.374-380.56 380.56-380.56 94.262 0 180.913 34.541 247.657 91.917l15.809-16.39v-46.253l292.736-292.154 87.238 87.238-292.154 292.736zM380.56 315.974c-145.784 0-263.464 117.681-263.464 263.466s117.681 263.464 263.464 263.464c145.784 0 263.466-117.681 263.466-263.464s-117.681-263.466-263.466-263.466z" />
<glyph unicode="&#xe91d;" glyph-name="close" d="M896.001 754.652l-77.348 77.348-306.652-306.652-306.652 306.652-77.348-77.348 306.652-306.652-306.652-306.652 77.348-77.348 306.652 306.652 306.652-306.652 77.348 77.348-306.652 306.652 306.652 306.652z" />
<glyph unicode="&#xe91e;" glyph-name="close-2" d="M810.667 686.507l-60.16 60.16-238.507-238.507-238.507 238.507-60.16-60.16 238.507-238.507-238.507-238.507 60.16-60.16 238.507 238.507 238.507-238.507 60.16 60.16-238.507 238.507 238.507 238.507z" />
</font>
</defs>
</svg>
